<?xml version="1.0" encoding="utf-8"?>
<!-- Generator: Adobe Illustrator 16.0.0, SVG Export Plug-In . SVG Version: 6.00 Build 0)  -->
<!DOCTYPE svg PUBLIC "-//W3C//DTD SVG 1.1//EN" "http://www.w3.org/Graphics/SVG/1.1/DTD/svg11.dtd">
<svg version="1.1" id="Layer_1" xmlns="http://www.w3.org/2000/svg" xmlns:xlink="http://www.w3.org/1999/xlink" x="0px" y="0px"
	 width="104px" height="104px" viewBox="0 0 104 104" enable-background="new 0 0 104 104" xml:space="preserve">
<g>
	<path fill="#FFFFFF" d="M0,51.997C0,80.717,23.281,104,51.997,104C80.715,104,104,80.717,104,51.997S80.715,0,51.997,0
		C23.281,0,0,23.277,0,51.997z"/>
	<g>
		<path fill="#6AC8C9" d="M0,51.997C0,80.717,23.281,104,51.997,104C80.715,104,104,80.717,104,51.997S80.715,0,51.997,0
			C23.281,0,0,23.277,0,51.997z M71.711,50.136l-5.221,5.222L43.681,32.555l5.219-5.223L71.711,50.136z M64.093,57.761l-5.229,5.219
			L36.061,40.174l5.221-5.222L64.093,57.761z M67.572,75.574l8.896-8.888l2.291,11.201L67.572,75.574z M53.381,72.646L73.54,52.488
			l2.25,10.945L64.32,74.906L53.381,72.646z M28.447,47.791l5.218-5.219l22.807,22.801l-5.225,5.228L28.447,47.791z M27.108,26.222
			c5.25-5.245,13.539-5.576,19.167-0.981L26.128,45.373C21.542,39.754,21.87,31.463,27.108,26.222z"/>
	</g>
</g>
</svg>
