<?xml version="1.0" encoding="utf-8"?>
<!-- Generator: Adobe Illustrator 16.0.0, SVG Export Plug-In . SVG Version: 6.00 Build 0)  -->
<!DOCTYPE svg PUBLIC "-//W3C//DTD SVG 1.1//EN" "http://www.w3.org/Graphics/SVG/1.1/DTD/svg11.dtd">
<svg version="1.1" id="Layer_1" xmlns="http://www.w3.org/2000/svg" xmlns:xlink="http://www.w3.org/1999/xlink" x="0px" y="0px"
	 width="200.971px" height="37.003px" viewBox="-1.108 -1.25 200.971 37.003" enable-background="new -1.108 -1.25 200.971 37.003"
	 xml:space="preserve">
<g>
	<path fill="#F7981D" d="M110.41,17.25c0,9.389-7.61,17.001-17,17.001c-9.386,0-16.997-7.612-16.997-17.001
		c0-9.388,7.611-16.997,16.997-16.997C102.799,0.253,110.41,7.862,110.41,17.25"/>
	<path fill="#FCF8CD" d="M87.867,7.745v3.539h2.538v2.737h-2.538v7.357c0,0.561,0.116,0.961,0.348,1.2
		c0.231,0.238,0.542,0.361,0.935,0.361c0.267,0,0.5-0.017,0.701-0.035c0.2-0.021,0.426-0.062,0.675-0.11l0.333,2.815
		c-0.437,0.135-0.868,0.229-1.296,0.301c-0.427,0.066-0.891,0.101-1.389,0.101c-1.345,0-2.379-0.369-3.104-1.107
		c-0.727-0.736-1.088-1.908-1.088-3.512v-7.37h-2.123v-2.737h2.123V7.746L87.867,7.745L87.867,7.745z"/>
	<path fill="#FCF8CD" d="M91.904,18.373c0-2.154,0.603-3.917,1.809-5.293s2.873-2.063,5.001-2.063c2.138,0,3.81,0.687,5.015,2.057
		c1.207,1.371,1.812,3.138,1.812,5.3v0.281c0,2.172-0.604,3.939-1.812,5.309c-1.205,1.367-2.867,2.049-4.985,2.049
		c-2.146,0-3.822-0.682-5.028-2.049s-1.809-3.137-1.809-5.309L91.904,18.373L91.904,18.373z M95.803,18.654
		c0,1.314,0.231,2.373,0.695,3.172c0.461,0.797,1.21,1.193,2.243,1.193c1.006,0,1.742-0.4,2.208-1.201
		c0.469-0.801,0.702-1.855,0.702-3.164v-0.281c0-1.279-0.235-2.326-0.709-3.139c-0.475-0.81-1.215-1.212-2.229-1.212
		s-1.755,0.402-2.216,1.212c-0.464,0.812-0.695,1.856-0.695,3.139C95.803,18.373,95.803,18.654,95.803,18.654z"/>
	<path fill="#8AD3E1" d="M9.895,29.35c-2.852,0-5.127-0.912-6.833-2.738c-1.705-1.824-2.558-4.145-2.558-6.959v-0.73
		c0-2.936,0.808-5.353,2.42-7.251C4.538,9.771,6.702,8.827,9.418,8.84c2.667,0,4.738,0.803,6.21,2.41
		c1.476,1.608,2.211,3.78,2.211,6.521v2.903h-11.8l-0.037,0.107c0.099,1.307,0.533,2.375,1.308,3.217
		c0.772,0.842,1.822,1.26,3.15,1.26c1.182,0,2.162-0.119,2.94-0.354c0.778-0.233,1.632-0.608,2.558-1.119l1.442,3.283
		c-0.815,0.646-1.872,1.188-3.168,1.627C12.936,29.133,11.488,29.35,9.895,29.35 M9.418,12.947c-0.985,0-1.766,0.378-2.338,1.132
		c-0.573,0.756-0.926,1.749-1.059,2.977l0.054,0.091h6.54v-0.474c0-1.133-0.265-2.038-0.795-2.713
		C11.29,13.284,10.49,12.947,9.418,12.947"/>
	<path fill="#8AD3E1" d="M30.701,28.967c-0.147-0.328-0.274-0.666-0.384-1.015c-0.11-0.348-0.195-0.696-0.256-1.051
		c-0.634,0.729-1.403,1.319-2.312,1.771c-0.907,0.451-1.943,0.676-3.114,0.676c-1.936,0-3.474-0.524-4.612-1.579
		c-1.139-1.054-1.707-2.486-1.707-4.304c0-1.854,0.742-3.28,2.229-4.293c1.485-1.012,3.665-1.516,6.539-1.516h2.723v-1.935
		c0-0.948-0.274-1.685-0.822-2.209c-0.549-0.523-1.358-0.784-2.431-0.784c-0.608,0-1.15,0.07-1.625,0.209
		c-0.476,0.14-0.858,0.307-1.15,0.502l-0.348,2.119h-4.019l0.019-4.385c0.974-0.657,2.092-1.21,3.352-1.662
		c1.261-0.45,2.633-0.675,4.12-0.675c2.446,0,4.435,0.601,5.963,1.798c1.528,1.202,2.293,2.909,2.293,5.125v8.166
		c0,0.306,0.003,0.593,0.009,0.859c0.005,0.268,0.028,0.521,0.064,0.766l1.625,0.222v3.194H30.701L30.701,28.967z M26.079,25.402
		c0.804,0,1.534-0.172,2.192-0.52c0.657-0.349,1.169-0.781,1.535-1.306V20.56h-2.723c-1.132,0-1.992,0.268-2.576,0.795
		c-0.584,0.528-0.876,1.166-0.876,1.907c0,0.67,0.217,1.193,0.648,1.572C24.712,25.217,25.312,25.402,26.079,25.402"/>
	<path fill="#8AD3E1" d="M38.318,25.771l2.558-0.549V12.964l-2.832-0.548V9.202h7.8l0.237,2.885
		c0.464-1.021,1.061-1.819,1.791-2.392c0.731-0.572,1.576-0.859,2.539-0.859c0.28,0,0.575,0.022,0.886,0.065
		c0.311,0.042,0.569,0.096,0.776,0.152l-0.567,4.861l-2.19-0.056c-0.78,0-1.425,0.15-1.938,0.457
		c-0.511,0.306-0.9,0.735-1.168,1.296v9.606l2.558,0.55v3.196H38.318V25.771z"/>
	<path fill="#8AD3E1" d="M53.37,25.771l2.558-0.549V12.964l-2.832-0.548V9.202h7.801l0.237,2.831
		c0.657-1.011,1.468-1.797,2.43-2.357c0.962-0.56,2.039-0.84,3.232-0.84c1.997,0,3.556,0.627,4.678,1.881
		c1.119,1.256,1.68,3.222,1.68,5.902v8.602l2.558,0.55v3.196H65.519v-3.196l2.282-0.55v-8.584c0-1.327-0.268-2.266-0.804-2.821
		c-0.536-0.555-1.345-0.83-2.429-0.83c-0.707,0-1.34,0.142-1.9,0.428c-0.56,0.287-1.028,0.691-1.406,1.214v10.596l2.155,0.549v3.195
		H53.37V25.771z"/>
	<polygon fill="#98CB98" points="111.223,3.688 111.223,0.472 119.406,0.472 119.406,25.225 121.982,25.771 121.982,28.969 
		111.497,28.969 111.497,25.771 114.071,25.225 114.071,4.235 	"/>
	<path fill="#98CB98" d="M131.682,29.352c-2.85,0-5.127-0.914-6.832-2.74c-1.703-1.824-2.557-4.145-2.557-6.959v-0.729
		c0-2.937,0.807-5.354,2.42-7.254c1.615-1.899,3.779-2.842,6.494-2.829c2.666,0,4.734,0.804,6.211,2.409
		c1.473,1.607,2.211,3.781,2.211,6.521v2.904h-11.803l-0.035,0.108c0.098,1.304,0.533,2.375,1.307,3.216
		c0.773,0.842,1.824,1.26,3.15,1.26c1.182,0,2.162-0.117,2.939-0.355c0.778-0.236,1.633-0.611,2.559-1.123l1.443,3.287
		c-0.816,0.646-1.873,1.189-3.172,1.625C134.723,29.133,133.275,29.352,131.682,29.352 M131.207,12.947
		c-0.984,0-1.766,0.378-2.338,1.133s-0.926,1.748-1.059,2.976l0.053,0.093h6.541v-0.476c0-1.131-0.264-2.036-0.795-2.712
		C133.08,13.286,132.279,12.947,131.207,12.947"/>
	<path fill="#98CB98" d="M153.238,28.969c-0.146-0.33-0.273-0.666-0.383-1.015c-0.11-0.348-0.195-0.694-0.256-1.051
		c-0.636,0.729-1.404,1.319-2.312,1.771c-0.908,0.449-1.945,0.674-3.117,0.674c-1.936,0-3.473-0.522-4.609-1.579
		c-1.139-1.054-1.707-2.486-1.707-4.302c0-1.85,0.742-3.28,2.229-4.293c1.485-1.01,3.666-1.516,6.539-1.516h2.723v-1.937
		c0-0.95-0.271-1.686-0.821-2.211c-0.549-0.521-1.355-0.783-2.431-0.783c-0.608,0-1.149,0.07-1.627,0.208
		c-0.473,0.142-0.856,0.309-1.147,0.504l-0.349,2.116h-4.018l0.016-4.383c0.976-0.656,2.095-1.211,3.354-1.662
		c1.261-0.449,2.634-0.674,4.117-0.674c2.447,0,4.438,0.599,5.968,1.798c1.524,1.2,2.293,2.908,2.293,5.123v8.168
		c0,0.306,0,0.593,0.008,0.857c0.006,0.268,0.024,0.521,0.062,0.768l1.623,0.22v3.196L153.238,28.969L153.238,28.969z
		 M148.617,25.406c0.805,0,1.533-0.174,2.193-0.521c0.653-0.348,1.168-0.782,1.53-1.307v-3.016h-2.723
		c-1.134,0-1.988,0.268-2.574,0.795c-0.586,0.529-0.877,1.166-0.877,1.91c0,0.67,0.215,1.191,0.646,1.57
		C147.25,25.219,147.85,25.406,148.617,25.406"/>
	<path fill="#98CB98" d="M160.855,25.771l2.56-0.547v-12.26l-2.832-0.547V9.203h7.801l0.238,2.885
		c0.463-1.022,1.06-1.82,1.789-2.392c0.729-0.573,1.575-0.858,2.539-0.858c0.28,0,0.573,0.021,0.887,0.063
		c0.312,0.043,0.567,0.096,0.774,0.156l-0.565,4.857l-2.19-0.054c-0.777,0-1.427,0.15-1.937,0.457
		c-0.512,0.305-0.901,0.735-1.172,1.294v9.608l2.562,0.548v3.196h-10.449v-3.194L160.855,25.771L160.855,25.771z"/>
	<path fill="#98CB98" d="M175.91,25.771l2.555-0.547v-12.26l-2.828-0.547V9.203h7.799l0.234,2.832
		c0.66-1.012,1.469-1.796,2.432-2.357c0.963-0.559,2.039-0.84,3.234-0.84c1.996,0,3.555,0.625,4.676,1.882
		c1.121,1.255,1.68,3.221,1.68,5.901v8.602l2.56,0.548v3.196h-10.19v-3.196l2.282-0.548v-8.586c0-1.325-0.271-2.266-0.803-2.819
		c-0.537-0.557-1.351-0.832-2.435-0.832c-0.707,0-1.34,0.143-1.896,0.431c-0.562,0.285-1.026,0.688-1.408,1.211v10.596l2.156,0.547
		v3.197h-10.046L175.91,25.771L175.91,25.771z"/>
</g>
</svg>
