<?xml version="1.0" encoding="utf-8"?>
<!-- Generator: Adobe Illustrator 16.0.0, SVG Export Plug-In . SVG Version: 6.00 Build 0)  -->
<!DOCTYPE svg PUBLIC "-//W3C//DTD SVG 1.1//EN" "http://www.w3.org/Graphics/SVG/1.1/DTD/svg11.dtd">
<svg version="1.1" id="Layer_1" xmlns="http://www.w3.org/2000/svg" xmlns:xlink="http://www.w3.org/1999/xlink" x="0px" y="0px"
	 width="72px" height="72px" viewBox="0 0 72 72" enable-background="new 0 0 72 72" xml:space="preserve">
<g>
	<path fill="#FFFFFF" d="M35.898,3.791C18.109,3.791,3.69,18.214,3.69,35.997c0,17.788,14.419,32.212,32.208,32.212
		c17.787,0,32.208-14.424,32.208-32.212C68.106,18.214,53.685,3.791,35.898,3.791z"/>
	<g>
		<path fill="#97C93C" d="M49.608,27.057H22.394c-1.818,0-3.296,1.48-3.296,3.296v9.291c0,1.813,1.478,3.292,3.296,3.292h0.343
			l1.775,0.086c2.655,0.694,2.903,2.859,2.903,6.775v1.829l3.496-4.436c0.101-0.108,0.222-0.206,0.319-0.334
			c3.213-4.25,9.895-3.92,9.895-3.92h8.481c1.82,0,3.301-1.478,3.301-3.292v-9.291C52.909,28.537,51.428,27.057,49.608,27.057z"/>
		<path fill="#97C93C" d="M36,0C16.118,0,0,16.117,0,36s16.118,36,36,36s36-16.117,36-36S55.882,0,36,0z M58.3,39.643
			c0,4.787-3.896,8.69-8.692,8.69H40.1c-2.313-0.075-3.492,0.738-4.447,1.73c-0.141,0.15-0.815,0.822-0.951,0.962l-0.049,0.049
			l-4.264,4.001c-1.32,1.243-2.542,1.502-3.334,1.502c-1.851,0-3.845-1.436-3.845-4.589v-2.105c0-1.882-1.237-1.562-1.237-1.562
			s-0.002,0-0.004-0.005c-4.616-0.244-8.268-4.042-8.268-8.673v-9.291c0-4.793,3.902-8.692,8.694-8.692h27.214
			c4.796,0,8.692,3.899,8.692,8.692V39.643z"/>
	</g>
</g>
</svg>
