<?xml version="1.0" encoding="utf-8"?>
<!-- Generator: Adobe Illustrator 16.0.0, SVG Export Plug-In . SVG Version: 6.00 Build 0)  -->
<!DOCTYPE svg PUBLIC "-//W3C//DTD SVG 1.1//EN" "http://www.w3.org/Graphics/SVG/1.1/DTD/svg11.dtd">
<svg version="1.1" id="Layer_1" xmlns="http://www.w3.org/2000/svg" xmlns:xlink="http://www.w3.org/1999/xlink" x="0px" y="0px"
	 width="104px" height="104px" viewBox="0 0 104 104" enable-background="new 0 0 104 104" xml:space="preserve">
<g>
	<path fill="#FFFFFF" d="M75.853,48.19c-2.939,1.656-4.194,5.519-2.791,8.579c1.398,3.05-0.172,5.224-3.486,4.873l6.089,14.777
		c1.062,2.465-0.114,3.674-2.606,2.676l-3.038-1.214c-2.499-0.997-5.354,0.229-6.351,2.721l-1.216,3.038
		c-0.994,2.496-2.674,2.516-3.736,0.05l-6.271-15.223c-0.142-0.329-0.291-0.698-0.444-1.09c-0.155,0.392-0.306,0.761-0.451,1.09
		l-6.732,15.148c-1.06,2.471-2.74,2.445-3.735-0.049l-1.22-3.032c-0.992-2.497-3.849-3.721-6.346-2.725l-3.033,1.214
		c-2.496,0.995-3.674-0.208-2.609-2.674l6.531-14.708c-3.298,0.343-4.858-1.829-3.468-4.873c1.403-3.061,0.147-6.923-2.79-8.579
		c-2.937-1.649-2.937-4.359,0-6.013c2.938-1.654,4.193-5.515,2.79-8.579c-1.402-3.064,0.188-5.253,3.535-4.869
		c3.349,0.388,6.633-1.992,7.294-5.301c0.664-3.301,3.242-4.141,5.721-1.854c2.48,2.281,6.546,2.281,9.019,0
		c2.487-2.287,5.057-1.447,5.726,1.854c0.663,3.309,3.942,5.688,7.293,5.301c3.351-0.384,4.942,1.804,3.536,4.869
		c-1.403,3.064-0.148,6.925,2.791,8.579C78.786,43.832,78.786,46.542,75.853,48.19z"/>
	<g>
		<path fill="#F7981F" d="M52.002,61.092c8.784,0,15.906-7.119,15.906-15.907c0-8.782-7.122-15.909-15.906-15.909
			c-8.787,0-15.912,7.126-15.912,15.909C36.09,53.973,43.215,61.092,52.002,61.092z"/>
		<path fill="#F7981F" d="M52.002,0C23.283,0,0,23.279,0,51.996C0,80.717,23.283,104,52.002,104C80.718,104,104,80.717,104,51.996
			C104,23.279,80.718,0,52.002,0z M75.853,48.19c-2.939,1.656-4.194,5.519-2.791,8.579c1.398,3.05-0.172,5.224-3.486,4.873
			l6.089,14.777c1.062,2.465-0.114,3.674-2.606,2.676l-3.038-1.214c-2.499-0.997-5.354,0.229-6.351,2.721l-1.216,3.038
			c-0.994,2.496-2.674,2.516-3.736,0.05l-6.271-15.223c-0.142-0.329-0.291-0.698-0.444-1.09c-0.155,0.392-0.306,0.761-0.451,1.09
			l-6.732,15.148c-1.06,2.471-2.74,2.445-3.735-0.049l-1.22-3.032c-0.992-2.497-3.849-3.721-6.346-2.725l-3.033,1.214
			c-2.496,0.995-3.674-0.208-2.609-2.674l6.531-14.708c-3.298,0.343-4.858-1.829-3.468-4.873c1.403-3.061,0.147-6.923-2.79-8.579
			c-2.937-1.649-2.937-4.359,0-6.013c2.938-1.654,4.193-5.515,2.79-8.579c-1.402-3.064,0.188-5.253,3.535-4.869
			c3.349,0.388,6.633-1.992,7.294-5.301c0.664-3.301,3.242-4.141,5.721-1.854c2.48,2.281,6.546,2.281,9.019,0
			c2.487-2.287,5.057-1.447,5.726,1.854c0.663,3.309,3.942,5.688,7.293,5.301c3.351-0.384,4.942,1.804,3.536,4.869
			c-1.403,3.064-0.148,6.925,2.791,8.579C78.786,43.832,78.786,46.542,75.853,48.19z"/>
	</g>
	<path fill="#FFFFFF" d="M41.677,42.02c0.116-0.362,0.543-1.203,1.948-1.203l4.774-0.012c0.112-0.002,0.338-0.161,0.37-0.264
		L50.255,36c0.435-1.34,1.359-1.483,1.747-1.483c0.375,0,1.308,0.144,1.741,1.483l1.487,4.541c0.037,0.103,0.258,0.262,0.366,0.264
		l4.778,0.012c1.405,0,1.83,0.841,1.944,1.203c0.124,0.359,0.27,1.287-0.868,2.114l-3.857,2.814c-0.087,0.07-0.17,0.332-0.142,0.44
		l1.467,4.543c0.3,0.925,0.062,1.525-0.188,1.872c-0.299,0.423-0.783,0.661-1.316,0.661c-0.435,0-0.879-0.16-1.32-0.483l-3.867-2.8
		c-0.022-0.014-0.109-0.047-0.225-0.047c-0.125,0-0.209,0.034-0.233,0.047l-3.869,2.8c-0.442,0.32-0.887,0.483-1.313,0.483
		c-0.535,0-1.015-0.238-1.324-0.661c-0.248-0.347-0.484-0.947-0.184-1.872l1.464-4.543c0.039-0.108-0.053-0.37-0.138-0.44
		l-3.858-2.814C41.406,43.306,41.561,42.379,41.677,42.02z"/>
	<path fill="#FFFFFF" d="M41.677,42.02c0.116-0.362,0.543-1.203,1.948-1.203l4.774-0.012c0.112-0.002,0.338-0.161,0.37-0.264
		L50.255,36c0.435-1.34,1.359-1.483,1.747-1.483c0.375,0,1.308,0.144,1.741,1.483l1.487,4.541c0.037,0.103,0.258,0.262,0.366,0.264
		l4.778,0.012c1.405,0,1.83,0.841,1.944,1.203c0.124,0.359,0.27,1.287-0.868,2.114l-3.857,2.814c-0.087,0.07-0.17,0.332-0.142,0.44
		l1.467,4.543c0.3,0.925,0.062,1.525-0.188,1.872c-0.299,0.423-0.783,0.661-1.316,0.661c-0.435,0-0.879-0.16-1.32-0.483l-3.867-2.8
		c-0.022-0.014-0.109-0.047-0.225-0.047c-0.125,0-0.209,0.034-0.233,0.047l-3.869,2.8c-0.442,0.32-0.887,0.483-1.313,0.483
		c-0.535,0-1.015-0.238-1.324-0.661c-0.248-0.347-0.484-0.947-0.184-1.872l1.464-4.543c0.039-0.108-0.053-0.37-0.138-0.44
		l-3.858-2.814C41.406,43.306,41.561,42.379,41.677,42.02z"/>
</g>
</svg>
