<?xml version="1.0" encoding="utf-8"?>
<!-- Generator: Adobe Illustrator 16.0.0, SVG Export Plug-In . SVG Version: 6.00 Build 0)  -->
<!DOCTYPE svg PUBLIC "-//W3C//DTD SVG 1.1//EN" "http://www.w3.org/Graphics/SVG/1.1/DTD/svg11.dtd">
<svg version="1.1" id="Layer_1" xmlns="http://www.w3.org/2000/svg" xmlns:xlink="http://www.w3.org/1999/xlink" x="0px" y="0px"
	 width="104px" height="104px" viewBox="0 0 104 104" enable-background="new 0 0 104 104" xml:space="preserve">
<g>
	<path fill="#FFFFFF" d="M79.402,70.961c0,5.973-4.862,10.832-10.83,10.832H35.428c-5.975,0-10.834-4.859-10.834-10.832V34.876
		c0-5.976,4.859-10.837,10.834-10.837h2.29v-2.874c0-1.591,1.292-2.885,2.886-2.885c1.591,0,2.877,1.294,2.877,2.885v2.874h17.032
		v-2.874c0-1.591,1.293-2.885,2.887-2.885c1.591,0,2.877,1.294,2.877,2.885v2.874h2.296c5.968,0,10.83,4.861,10.83,10.837V70.961z"
		/>
	<g>
		<path fill="#066899" d="M51.996,0C23.283,0,0,23.277,0,51.995C0,80.716,23.283,104,51.996,104C80.717,104,104,80.716,104,51.995
			C104,23.277,80.717,0,51.996,0z M79.402,70.961c0,5.973-4.862,10.832-10.83,10.832H35.428c-5.975,0-10.834-4.859-10.834-10.832
			V34.876c0-5.976,4.859-10.837,10.834-10.837h2.29v-2.874c0-1.591,1.292-2.885,2.886-2.885c1.591,0,2.877,1.294,2.877,2.885v2.874
			h17.032v-2.874c0-1.591,1.293-2.885,2.887-2.885c1.591,0,2.877,1.294,2.877,2.885v2.874h2.296c5.968,0,10.83,4.861,10.83,10.837
			V70.961z"/>
		<path fill="#066899" d="M43.659,70.235c0,0.878-0.707,1.589-1.59,1.589h-6.29c-0.882,0-1.595-0.711-1.595-1.589v-6.297
			c0-0.88,0.713-1.59,1.595-1.59h6.29c0.883,0,1.59,0.71,1.59,1.59V70.235z M43.659,57.535c0,0.883-0.707,1.594-1.59,1.594h-6.29
			c-0.882,0-1.595-0.711-1.595-1.594v-6.288c0-0.882,0.713-1.6,1.595-1.6h6.29c0.883,0,1.59,0.717,1.59,1.6V57.535z M43.659,44.839
			c0,0.883-0.707,1.595-1.59,1.595h-6.29c-0.882,0-1.595-0.711-1.595-1.595v-6.291c0-0.878,0.713-1.59,1.595-1.59h6.29
			c0.883,0,1.59,0.712,1.59,1.59V44.839z M56.734,70.235c0,0.878-0.707,1.589-1.589,1.589h-6.292c-0.881,0-1.594-0.711-1.594-1.589
			v-6.297c0-0.88,0.713-1.59,1.594-1.59h6.292c0.882,0,1.589,0.71,1.589,1.59V70.235z M56.734,57.535
			c0,0.883-0.707,1.594-1.589,1.594h-6.292c-0.881,0-1.594-0.711-1.594-1.594v-6.288c0-0.882,0.713-1.6,1.594-1.6h6.292
			c0.882,0,1.589,0.717,1.589,1.6V57.535z M56.734,44.839c0,0.883-0.707,1.595-1.589,1.595h-6.292c-0.881,0-1.594-0.711-1.594-1.595
			v-6.291c0-0.878,0.713-1.59,1.594-1.59h6.292c0.882,0,1.589,0.712,1.589,1.59V44.839z M69.811,70.235
			c0,0.878-0.706,1.589-1.592,1.589h-6.294c-0.876,0-1.59-0.711-1.59-1.589v-6.297c0-0.88,0.714-1.59,1.59-1.59h6.294
			c0.886,0,1.592,0.71,1.592,1.59V70.235z M69.811,57.535c0,0.883-0.706,1.594-1.592,1.594h-6.294c-0.876,0-1.59-0.711-1.59-1.594
			v-6.288c0-0.882,0.714-1.6,1.59-1.6h6.294c0.886,0,1.592,0.717,1.592,1.6V57.535z M69.811,44.839c0,0.883-0.706,1.595-1.592,1.595
			h-6.294c-0.876,0-1.59-0.711-1.59-1.595v-6.291c0-0.878,0.714-1.59,1.59-1.59h6.294c0.886,0,1.592,0.712,1.592,1.59V44.839z"/>
	</g>
</g>
</svg>
