<?xml version="1.0" encoding="utf-8"?>
<!-- Generator: Adobe Illustrator 16.0.0, SVG Export Plug-In . SVG Version: 6.00 Build 0)  -->
<!DOCTYPE svg PUBLIC "-//W3C//DTD SVG 1.1//EN" "http://www.w3.org/Graphics/SVG/1.1/DTD/svg11.dtd">
<svg version="1.1" id="Layer_1" xmlns="http://www.w3.org/2000/svg" xmlns:xlink="http://www.w3.org/1999/xlink" x="0px" y="0px"
	 width="238px" height="64px" viewBox="0 0 238 64" enable-background="new 0 0 238 64" xml:space="preserve">
<g>
	<path fill="#F7981D" d="M111.908,32.598c0,9.389-7.61,17.002-17,17.002c-9.386,0-16.997-7.613-16.997-17.002
		c0-9.388,7.611-16.997,16.997-16.997C104.297,15.601,111.908,23.21,111.908,32.598"/>
	<path fill="#FCF8CD" d="M89.365,23.093v3.539h2.538v2.737h-2.538v7.357c0,0.561,0.116,0.961,0.348,1.201
		c0.231,0.238,0.542,0.361,0.934,0.361c0.267,0,0.5-0.016,0.701-0.035c0.201-0.021,0.426-0.062,0.675-0.111l0.333,2.816
		c-0.436,0.135-0.868,0.23-1.296,0.301c-0.426,0.066-0.89,0.1-1.388,0.1c-1.345,0-2.379-0.369-3.105-1.107
		c-0.726-0.736-1.088-1.908-1.088-3.512V29.37h-2.123v-2.737h2.123v-3.539H89.365z"/>
	<path fill="#FCF8CD" d="M93.402,33.721c0-2.154,0.603-3.917,1.809-5.293s2.873-2.064,5.001-2.064c2.137,0,3.809,0.687,5.014,2.057
		c1.207,1.371,1.812,3.138,1.812,5.3v0.281c0,2.172-0.604,3.939-1.812,5.309c-1.205,1.367-2.867,2.049-4.985,2.049
		c-2.146,0-3.822-0.682-5.028-2.049s-1.809-3.137-1.809-5.309L93.402,33.721L93.402,33.721z M97.301,34.002
		c0,1.314,0.231,2.373,0.695,3.172c0.461,0.797,1.21,1.193,2.243,1.193c1.006,0,1.742-0.4,2.208-1.201
		c0.469-0.801,0.702-1.855,0.702-3.164v-0.281c0-1.279-0.235-2.326-0.709-3.139c-0.474-0.809-1.215-1.212-2.229-1.212
		c-1.015,0-1.755,0.403-2.216,1.212c-0.464,0.812-0.695,1.857-0.695,3.139C97.301,33.721,97.301,34.002,97.301,34.002z"/>
	<path fill="#8AD3E1" d="M11.392,44.697c-2.851,0-5.127-0.912-6.833-2.738C2.854,40.135,2.002,37.814,2.002,35v-0.73
		c0-2.936,0.807-5.353,2.42-7.251c1.614-1.9,3.778-2.844,6.494-2.831c2.667,0,4.738,0.802,6.21,2.41
		c1.475,1.608,2.211,3.78,2.211,6.52v2.904h-11.8L7.5,36.129c0.098,1.307,0.533,2.375,1.307,3.217
		c0.773,0.842,1.823,1.26,3.151,1.26c1.181,0,2.162-0.119,2.94-0.355c0.779-0.234,1.632-0.609,2.558-1.119l1.442,3.283
		c-0.815,0.646-1.872,1.189-3.168,1.627C14.433,44.48,12.986,44.697,11.392,44.697 M10.916,28.295c-0.986,0-1.766,0.378-2.338,1.132
		c-0.573,0.756-0.926,1.749-1.059,2.977l0.054,0.09h6.54v-0.473c0-1.133-0.265-2.038-0.795-2.713
		C12.788,28.632,11.988,28.295,10.916,28.295"/>
	<path fill="#8AD3E1" d="M32.199,44.314c-0.147-0.328-0.274-0.666-0.384-1.014s-0.195-0.697-0.256-1.051
		c-0.633,0.73-1.403,1.32-2.311,1.771c-0.907,0.451-1.944,0.676-3.114,0.676c-1.936,0-3.474-0.525-4.613-1.58
		c-1.138-1.053-1.707-2.486-1.707-4.303c0-1.854,0.742-3.281,2.229-4.293c1.485-1.012,3.665-1.516,6.539-1.516h2.722V31.07
		c0-0.949-0.274-1.685-0.822-2.209c-0.549-0.524-1.358-0.785-2.43-0.785c-0.609,0-1.151,0.071-1.625,0.209
		c-0.476,0.14-0.859,0.307-1.151,0.502l-0.348,2.119H20.91l0.018-4.384c0.974-0.658,2.092-1.21,3.352-1.662
		c1.261-0.451,2.633-0.675,4.12-0.675c2.446,0,4.435,0.6,5.963,1.798c1.528,1.202,2.293,2.909,2.293,5.125v8.166
		c0,0.305,0.003,0.592,0.009,0.859c0.005,0.268,0.028,0.521,0.064,0.766l1.625,0.221v3.195H32.199z M27.577,40.75
		c0.804,0,1.534-0.172,2.192-0.52s1.169-0.781,1.535-1.305v-3.018h-2.722c-1.132,0-1.992,0.268-2.576,0.795
		c-0.584,0.529-0.876,1.166-0.876,1.908c0,0.67,0.216,1.193,0.648,1.572C26.21,40.564,26.81,40.75,27.577,40.75"/>
	<path fill="#8AD3E1" d="M39.816,41.119l2.558-0.549V28.312l-2.832-0.548V24.55h7.8l0.237,2.885c0.464-1.022,1.06-1.82,1.791-2.392
		c0.731-0.572,1.576-0.859,2.539-0.859c0.28,0,0.575,0.022,0.886,0.065c0.31,0.042,0.569,0.096,0.776,0.153l-0.567,4.861
		l-2.191-0.056c-0.78,0-1.425,0.151-1.937,0.457c-0.511,0.306-0.901,0.736-1.168,1.296v9.607l2.557,0.549v3.197H39.816V41.119z"/>
	<path fill="#8AD3E1" d="M54.868,41.119l2.558-0.549V28.312l-2.832-0.548V24.55h7.8l0.238,2.831
		c0.657-1.011,1.467-1.797,2.429-2.357c0.962-0.56,2.039-0.84,3.233-0.84c1.997,0,3.555,0.627,4.677,1.881
		c1.12,1.256,1.68,3.221,1.68,5.902v8.602l2.558,0.549v3.197H67.016v-3.197l2.283-0.549v-8.584c0-1.328-0.268-2.266-0.804-2.822
		c-0.536-0.554-1.345-0.83-2.429-0.83c-0.707,0-1.34,0.142-1.9,0.428c-0.56,0.287-1.029,0.691-1.406,1.214V40.57l2.155,0.549v3.195
		H54.868V41.119z"/>
	<polygon fill="#98CB98" points="112.72,19.035 112.72,15.82 120.904,15.82 120.904,40.572 123.48,41.119 123.48,44.316 
		112.995,44.316 112.995,41.119 115.569,40.572 115.569,19.583 	"/>
	<path fill="#98CB98" d="M133.18,44.699c-2.85,0-5.127-0.914-6.832-2.74c-1.703-1.824-2.557-4.145-2.557-6.959v-0.729
		c0-2.936,0.807-5.353,2.42-7.253c1.615-1.9,3.779-2.842,6.494-2.829c2.666,0,4.734,0.803,6.211,2.409
		c1.473,1.607,2.211,3.781,2.211,6.521v2.904h-11.803l-0.035,0.109c0.098,1.303,0.533,2.375,1.307,3.215
		c0.773,0.842,1.824,1.26,3.15,1.26c1.182,0,2.162-0.117,2.939-0.355c0.779-0.236,1.633-0.611,2.559-1.123l1.443,3.287
		c-0.816,0.646-1.873,1.189-3.172,1.625C136.221,44.48,134.773,44.699,133.18,44.699 M132.705,28.295
		c-0.984,0-1.766,0.378-2.338,1.133s-0.926,1.748-1.059,2.976l0.053,0.092h6.541v-0.475c0-1.131-0.264-2.036-0.795-2.712
		C134.578,28.634,133.777,28.295,132.705,28.295"/>
	<path fill="#98CB98" d="M154.736,44.316c-0.146-0.33-0.273-0.666-0.383-1.014s-0.195-0.695-0.256-1.051
		c-0.635,0.729-1.404,1.32-2.312,1.771c-0.908,0.449-1.945,0.674-3.117,0.674c-1.936,0-3.473-0.523-4.609-1.58
		c-1.139-1.053-1.707-2.486-1.707-4.301c0-1.85,0.742-3.281,2.229-4.293c1.486-1.01,3.666-1.516,6.539-1.516h2.723V31.07
		c0-0.951-0.271-1.686-0.822-2.211c-0.549-0.522-1.355-0.784-2.43-0.784c-0.609,0-1.15,0.071-1.627,0.208
		c-0.473,0.142-0.857,0.309-1.148,0.504l-0.348,2.117h-4.018l0.016-4.383c0.975-0.657,2.094-1.211,3.355-1.662
		c1.26-0.45,2.633-0.674,4.117-0.674c2.447,0,4.438,0.598,5.967,1.798c1.525,1.2,2.293,2.908,2.293,5.123v8.168
		c0,0.305,0,0.592,0.008,0.857c0.006,0.268,0.025,0.521,0.062,0.768l1.623,0.219v3.197L154.736,44.316L154.736,44.316z
		 M150.115,40.754c0.805,0,1.533-0.174,2.193-0.521c0.654-0.348,1.168-0.783,1.531-1.307V35.91h-2.723
		c-1.133,0-1.988,0.268-2.574,0.795c-0.586,0.529-0.877,1.166-0.877,1.91c0,0.67,0.215,1.191,0.646,1.57
		C148.748,40.566,149.348,40.754,150.115,40.754"/>
	<path fill="#98CB98" d="M162.354,41.119l2.559-0.547V28.313l-2.832-0.547v-3.215h7.801l0.238,2.885
		c0.463-1.023,1.059-1.821,1.789-2.392c0.73-0.573,1.576-0.858,2.539-0.858c0.281,0,0.574,0.021,0.887,0.063
		c0.311,0.043,0.568,0.096,0.775,0.156l-0.566,4.858l-2.191-0.054c-0.777,0-1.426,0.151-1.936,0.457
		c-0.512,0.305-0.902,0.736-1.172,1.294v9.609l2.561,0.547v3.197h-10.449v-3.195H162.354z"/>
	<path fill="#98CB98" d="M177.408,41.119l2.555-0.547V28.313l-2.828-0.547v-3.215h7.799l0.234,2.832
		c0.66-1.012,1.469-1.796,2.432-2.357c0.963-0.559,2.039-0.84,3.234-0.84c1.996,0,3.555,0.625,4.676,1.882
		c1.121,1.254,1.68,3.22,1.68,5.901v8.602l2.559,0.547v3.197h-10.191v-3.197l2.283-0.547v-8.586c0-1.326-0.271-2.266-0.803-2.82
		c-0.537-0.556-1.35-0.832-2.434-0.832c-0.707,0-1.34,0.143-1.896,0.431c-0.562,0.285-1.027,0.688-1.408,1.211V40.57l2.156,0.547
		v3.197H177.41L177.408,41.119L177.408,41.119z"/>
</g>
</svg>
