<?xml version="1.0" encoding="utf-8"?>
<!-- Generator: Adobe Illustrator 16.0.0, SVG Export Plug-In . SVG Version: 6.00 Build 0)  -->
<!DOCTYPE svg PUBLIC "-//W3C//DTD SVG 1.1//EN" "http://www.w3.org/Graphics/SVG/1.1/DTD/svg11.dtd">
<svg version="1.1" id="Layer_1" xmlns="http://www.w3.org/2000/svg" xmlns:xlink="http://www.w3.org/1999/xlink" x="0px" y="0px"
	 width="72px" height="72px" viewBox="0 0 72 72" enable-background="new 0 0 72 72" xml:space="preserve">
<g>
	<path fill="#FFFFFF" d="M36,3.832c-17.767,0-32.168,14.405-32.168,32.166c0,17.766,14.401,32.171,32.168,32.171
		c17.765,0,32.168-14.405,32.168-32.171C68.168,18.236,53.765,3.832,36,3.832z"/>
	<g>
		<path fill="#97C93C" d="M36,0C16.117,0,0,16.12,0,35.996C0,55.878,16.117,72,36,72c19.881,0,36-16.122,36-36.004
			C72,16.12,55.881,0,36,0z M18.78,21.095l34.062,0.021c1.237,0.001,1.535,0.719,0.659,1.591L37.414,38.794
			c-0.875,0.875-2.312,0.875-3.187,0L18.121,22.687C17.244,21.812,17.538,21.094,18.78,21.095z M55.059,49.061
			c0,1.063-0.869,1.932-1.935,1.932H18.562c-1.062,0-1.931-0.869-1.931-1.932V26.894c0-1.063,0.613-1.317,1.365-0.567l15.685,15.686
			c0.755,0.751,1.315,1.081,2.137,1.081c0.824,0,1.385-0.33,2.138-1.081l15.738-15.733c0.75-0.756,1.364-0.498,1.364,0.566V49.061z"
			/>
	</g>
</g>
</svg>
