<?xml version="1.0" encoding="utf-8"?>
<!-- Generator: Adobe Illustrator 16.0.0, SVG Export Plug-In . SVG Version: 6.00 Build 0)  -->
<!DOCTYPE svg PUBLIC "-//W3C//DTD SVG 1.1//EN" "http://www.w3.org/Graphics/SVG/1.1/DTD/svg11.dtd">
<svg version="1.1" id="Layer_1" xmlns="http://www.w3.org/2000/svg" xmlns:xlink="http://www.w3.org/1999/xlink" x="0px" y="0px"
	 width="104px" height="104px" viewBox="0 0 104 104" enable-background="new 0 0 104 104" xml:space="preserve">
<g>
	<path fill="#FFFFFF" d="M52,0C23.281,0,0,23.283,0,51.994C0,80.714,23.281,104,52,104c28.718,0,52-23.286,52-52.006
		C104,23.283,80.718,0,52,0z"/>
	<path fill="#50B748" d="M52,0C23.281,0,0,23.283,0,51.994C0,80.714,23.281,104,52,104c28.718,0,52-23.286,52-52.006
		C104,23.283,80.718,0,52,0z M27.126,30.47l49.2,0.026c1.789,0.001,2.219,1.037,0.953,2.303L54.042,56.035
		c-1.265,1.265-3.336,1.265-4.601,0L26.173,32.769C24.908,31.503,25.336,30.469,27.126,30.47z M79.53,70.863
		c0,1.536-1.258,2.793-2.793,2.793H26.813c-1.536,0-2.794-1.257-2.794-2.793V38.843c0-1.536,0.889-1.904,1.975-0.817l22.659,22.657
		c1.087,1.086,1.898,1.564,3.086,1.564c1.189,0,2-0.479,3.086-1.564l22.73-22.729c1.087-1.086,1.975-0.718,1.975,0.818V70.863z"/>
</g>
</svg>
