<?xml version="1.0" encoding="utf-8"?>
<!-- Generator: Adobe Illustrator 16.0.0, SVG Export Plug-In . SVG Version: 6.00 Build 0)  -->
<!DOCTYPE svg PUBLIC "-//W3C//DTD SVG 1.1//EN" "http://www.w3.org/Graphics/SVG/1.1/DTD/svg11.dtd">
<svg version="1.1" id="Layer_1" xmlns="http://www.w3.org/2000/svg" xmlns:xlink="http://www.w3.org/1999/xlink" x="0px" y="0px"
	 width="104px" height="104px" viewBox="0 0 104 104" enable-background="new 0 0 104 104" xml:space="preserve">
<g>
	<g>
		<path fill="#33C5F3" d="M104,51.995C104,80.714,80.725,104,52.004,104C23.283,104,0,80.714,0,51.995C0,23.281,23.283,0,52.004,0
			C80.725,0,104,23.281,104,51.995z"/>
	</g>
	<path fill="#FFFFFF" d="M65.098,84.425H44.59c-1.243,0-2.245,1.004-2.245,2.242c0,1.244,1.002,2.246,2.245,2.246h20.508
		c1.241,0,2.25-1.002,2.25-2.246C67.348,85.429,66.339,84.425,65.098,84.425z M67.898,24.12c0-0.995-0.812-1.798-1.808-1.798
		c-0.993,0-1.805,0.803-1.805,1.798c0,0.032,0.008,0.061,0.008,0.092c0,0.015-0.002,0.024-0.002,0.04v8.164
		c-0.029,1.255-0.537,2.204-1.872,2.204c-1.241,0-1.844-0.761-1.894-2.001V19.443c0-0.998-0.806-1.808-1.802-1.808
		c-0.999,0-1.808,0.81-1.808,1.808c0,0.039,0.009,0.071,0.009,0.103c0,0,0,0.017,0,0.023l-0.009,13.272
		c-0.151,1.256-0.744,1.778-1.957,1.778c-1.178,0-1.751-0.635-1.794-1.829V15.134c0-0.021,0.009-0.035,0.009-0.059
		c0-0.991-0.806-1.794-1.796-1.794c-0.871,0-1.594,0.622-1.758,1.447c-0.033,0.123-0.059,0.244-0.059,0.375L49.56,32.701
		c-0.096,1.086-0.652,1.919-1.88,1.919c-1.154,0-1.774-0.655-1.875-1.742V19.346l-0.006-0.03c0.006-0.053,0.018-0.111,0.018-0.17
		c0-0.999-0.811-1.81-1.807-1.81c-0.994,0-1.808,0.811-1.808,1.81c0,0.022,0.011,0.042,0.011,0.068
		c-0.006,0.043-0.016,0.086-0.016,0.132c0,0.254-0.066,21.662-0.066,24.405c0,2.472-1.267,2.747-1.814,2.747
		c-0.608,0-1.102-0.322-1.195-0.386l-0.119-0.103l-4.135-4.137c-0.07-0.07-0.148-0.129-0.225-0.188
		c-0.465-0.531-1.146-0.868-1.907-0.868c-1.39,0-2.517,1.124-2.517,2.521c0,0.662,0.256,1.26,0.67,1.707
		c0.094,0.168,0.203,0.328,0.34,0.467l0.036,0.039c0,0,4.456,5.61,7.85,9.002c3.391,3.391,7.01,6.521,6.046,16.297
		c-0.279,2.786-0.835,6.925-1.121,8.226c-0.643,2.951,1.598,2.783,1.598,2.783s15.721,0,17.819,0c2.098,0,1.931-1.471,1.792-2.105
		c-0.518-2.339-2.138-11.197-2.313-12.695c-0.715-6.177,0.845-9.153,2.354-13.171c1.279-3.412,2.605-6.937,2.605-11.849V24.252
		c0-0.018-0.006-0.03-0.006-0.051C67.89,24.176,67.898,24.149,67.898,24.12z"/>
</g>
</svg>
